<svg xmlns="http://www.w3.org/2000/svg" viewBox="0 0 720 220" role="img" aria-label="End-to-end latency (log append -> UI slot) trend, relative to the first recorded run"><style>text{font:11px system-ui,sans-serif;fill:currentColor}.grid{stroke:currentColor;stroke-opacity:.18}.base{stroke:currentColor;stroke-opacity:.45;stroke-dasharray:4 3}</style><line class="grid" x1="46" y1="192.0" x2="570" y2="192.0"/><text x="4" y="196.0">0.75x</text><line class="base" x1="46" y1="174.4" x2="570" y2="174.4"/><text x="4" y="178.4">1.00x</text><line class="grid" x1="46" y1="16.0" x2="570" y2="16.0"/><text x="4" y="20.0">3.25x</text><path d="M46.0,174.4 L64.7,174.2 L83.4,174.2 L102.1,174.3 L120.9,174.2 L139.6,174.2 L158.3,174.2 L177.0,174.3 L195.7,174.2 L214.4,174.3 L233.1,174.2 L251.9,174.2 L270.6,174.2 L289.3,174.2 L308.0,174.3 L326.7,174.3 L345.4,174.3 L364.1,174.2 L382.9,174.1 L401.6,174.2 L420.3,174.2 L439.0,174.2 L457.7,174.2 L476.4,174.2 L495.1,174.2 L513.9,174.2 L532.6,174.2 L551.3,174.2 L570.0,174.3" fill="none" stroke="#c8a45c" stroke-width="1.6"/><rect x="582" y="20" width="9" height="9" fill="#c8a45c"/><text x="596" y="28">latency_append_to_ui</text><path d="M46.0,174.4 L64.7,71.6 L83.4,74.1 L102.1,112.8 L120.9,67.0 L139.6,24.5 L158.3,119.9 L177.0,40.6 L195.7,37.4 L214.4,45.2 L233.1,99.2 L251.9,75.9 L270.6,43.2 L289.3,60.1 L308.0,118.5 L326.7,122.3 L345.4,43.6 L364.1,37.8 L382.9,44.1 L401.6,37.5 L420.3,40.4 L439.0,113.6 L457.7,38.1 L476.4,101.4 L495.1,45.0 L513.9,102.6 L532.6,113.7 L551.3,112.5 L570.0,25.8" fill="none" stroke="#7fa8c9" stroke-width="1.6"/><rect x="582" y="34" width="9" height="9" fill="#7fa8c9"/><text x="596" y="42">latency_parse_to_ui</text><text x="46" y="212">2026-08-21</text><text x="570" y="212" text-anchor="end">2026-09-19</text></svg>