<svg xmlns="http://www.w3.org/2000/svg" viewBox="0 0 720 220" role="img" aria-label="Plugin parser in the chain trend, relative to the first recorded run"><style>text{font:11px system-ui,sans-serif;fill:currentColor}.grid{stroke:currentColor;stroke-opacity:.18}.base{stroke:currentColor;stroke-opacity:.45;stroke-dasharray:4 3}</style><line class="grid" x1="46" y1="192.0" x2="570" y2="192.0"/><text x="4" y="196.0">0.75x</text><line class="base" x1="46" y1="170.0" x2="570" y2="170.0"/><text x="4" y="174.0">1.00x</text><line class="grid" x1="46" y1="16.0" x2="570" y2="16.0"/><text x="4" y="20.0">2.75x</text><path d="M46.0,170.0 L83.4,96.5 L120.9,96.8 L158.3,134.9 L195.7,98.7 L233.1,30.4 L270.6,97.8 L308.0,35.9 L345.4,66.3 L382.9,69.6 L420.3,107.6 L457.7,96.2 L495.1,66.0 L532.6,102.7 L570.0,127.4" fill="none" stroke="#c8a45c" stroke-width="1.6"/><rect x="582" y="20" width="9" height="9" fill="#c8a45c"/><text x="596" y="28">plugin_parser[off]</text><path d="M46.0,170.0 L83.4,93.1 L120.9,93.7 L158.3,132.9 L195.7,95.6 L233.1,63.1 L270.6,125.3 L308.0,66.1 L345.4,60.7 L382.9,67.5 L420.3,105.9 L457.7,93.6 L495.1,63.2 L532.6,102.3 L570.0,128.2" fill="none" stroke="#7fa8c9" stroke-width="1.6"/><rect x="582" y="34" width="9" height="9" fill="#7fa8c9"/><text x="596" y="42">plugin_parser[on]</text><text x="46" y="212">2026-08-21</text><text x="570" y="212" text-anchor="end">2026-09-04</text></svg>