<svg xmlns="http://www.w3.org/2000/svg" viewBox="0 0 720 220" role="img" aria-label="Plugin subscriber dispatch trend, relative to the first recorded run"><style>text{font:11px system-ui,sans-serif;fill:currentColor}.grid{stroke:currentColor;stroke-opacity:.18}.base{stroke:currentColor;stroke-opacity:.45;stroke-dasharray:4 3}</style><line class="grid" x1="46" y1="192.0" x2="570" y2="192.0"/><text x="4" y="196.0">0.75x</text><line class="base" x1="46" y1="166.9" x2="570" y2="166.9"/><text x="4" y="170.9">1.00x</text><line class="grid" x1="46" y1="16.0" x2="570" y2="16.0"/><text x="4" y="20.0">2.50x</text><path d="M46.0,166.9 L58.8,60.1 L71.6,48.9 L84.3,107.9 L97.1,58.8 L109.9,25.7 L122.7,91.5 L135.5,35.9 L148.2,29.8 L161.0,34.2 L173.8,73.2 L186.6,55.9 L199.4,29.5 L212.1,55.2 L224.9,97.4 L237.7,102.5 L250.5,30.3 L263.3,19.0 L276.0,22.5 L288.8,31.3 L301.6,27.7 L314.4,135.3 L327.2,25.3 L340.0,80.9 L352.7,24.4 L365.5,73.8 L378.3,103.2 L391.1,95.9 L403.9,29.3 L416.6,26.8 L429.4,27.5 L442.2,133.5 L455.0,82.7 L467.8,17.4 L480.5,36.5 L493.3,32.1 L506.1,136.0 L518.9,39.4 L531.7,34.1 L544.4,97.4 L557.2,110.1 L570.0,34.1" fill="none" stroke="#c8a45c" stroke-width="1.6"/><rect x="582" y="20" width="9" height="9" fill="#c8a45c"/><text x="596" y="28">plugin_dispatch[1-off]</text><path d="M46.0,166.9 L58.8,84.7 L71.6,80.9 L84.3,131.5 L97.1,92.1 L109.9,75.8 L122.7,132.6 L135.5,82.3 L148.2,83.5 L161.0,84.5 L173.8,114.8 L186.6,91.8 L199.4,83.1 L212.1,87.3 L224.9,132.5 L237.7,136.1 L250.5,73.6 L263.3,79.4 L276.0,75.9 L288.8,78.8 L301.6,74.1 L314.4,162.9 L327.2,77.8 L340.0,120.3 L352.7,78.3 L365.5,115.7 L378.3,127.8 L391.1,126.3 L403.9,78.1 L416.6,77.3 L429.4,82.1 L442.2,162.1 L455.0,120.5 L467.8,67.5 L480.5,73.9 L493.3,78.1 L506.1,162.6 L518.9,76.1 L531.7,79.8 L544.4,127.2 L557.2,126.6 L570.0,77.2" fill="none" stroke="#7fa8c9" stroke-width="1.6"/><rect x="582" y="34" width="9" height="9" fill="#7fa8c9"/><text x="596" y="42">plugin_dispatch[1-on]</text><path d="M46.0,166.9 L58.8,55.0 L71.6,48.3 L84.3,99.8 L97.1,54.0 L109.9,43.6 L122.7,106.0 L135.5,49.2 L148.2,48.2 L161.0,49.9 L173.8,88.8 L186.6,47.1 L199.4,45.1 L212.1,45.5 L224.9,117.9 L237.7,112.4 L250.5,28.1 L263.3,38.4 L276.0,30.2 L288.8,46.7 L301.6,29.8 L314.4,145.5 L327.2,46.3 L340.0,97.9 L352.7,32.2 L365.5,93.6 L378.3,99.4 L391.1,98.8 L403.9,40.4 L416.6,22.0 L429.4,35.1 L442.2,148.2 L455.0,93.3 L467.8,19.8 L480.5,50.1 L493.3,45.7 L506.1,150.4 L518.9,49.4 L531.7,45.7 L544.4,99.4 L557.2,98.7 L570.0,47.7" fill="none" stroke="#b9846b" stroke-width="1.6"/><rect x="582" y="48" width="9" height="9" fill="#b9846b"/><text x="596" y="56">plugin_dispatch[10-off]</text><path d="M46.0,166.9 L58.8,75.4 L71.6,65.8 L84.3,120.9 L97.1,81.4 L109.9,62.5 L122.7,127.8 L135.5,68.8 L148.2,66.3 L161.0,65.1 L173.8,111.5 L186.6,80.1 L199.4,63.0 L212.1,75.9 L224.9,133.1 L237.7,123.7 L250.5,60.1 L263.3,71.4 L276.0,51.2 L288.8,71.1 L301.6,57.9 L314.4,156.0 L327.2,68.7 L340.0,119.7 L352.7,65.8 L365.5,115.6 L378.3,113.8 L391.1,119.1 L403.9,68.7 L416.6,61.4 L429.4,68.4 L442.2,157.3 L455.0,118.1 L467.8,63.7 L480.5,63.1 L493.3,64.0 L506.1,158.6 L518.9,60.9 L531.7,69.5 L544.4,119.4 L557.2,122.1 L570.0,65.8" fill="none" stroke="#8fb08a" stroke-width="1.6"/><rect x="582" y="62" width="9" height="9" fill="#8fb08a"/><text x="596" y="70">plugin_dispatch[10-on]</text><path d="M46.0,166.9 L58.8,62.3 L71.6,60.8 L84.3,111.2 L97.1,57.2 L109.9,59.5 L122.7,119.3 L135.5,63.7 L148.2,68.8 L161.0,67.2 L173.8,100.8 L186.6,62.1 L199.4,65.2 L212.1,64.4 L224.9,127.6 L237.7,132.7 L250.5,58.9 L263.3,58.1 L276.0,46.5 L288.8,62.9 L301.6,51.8 L314.4,151.9 L327.2,60.5 L340.0,109.5 L352.7,50.6 L365.5,105.7 L378.3,108.2 L391.1,109.0 L403.9,58.6 L416.6,45.1 L429.4,56.2 L442.2,151.9 L455.0,109.8 L467.8,60.5 L480.5,67.0 L493.3,62.4 L506.1,152.1 L518.9,68.7 L531.7,48.4 L544.4,107.7 L557.2,105.9 L570.0,63.6" fill="none" stroke="#a891c0" stroke-width="1.6"/><rect x="582" y="76" width="9" height="9" fill="#a891c0"/><text x="596" y="84">plugin_dispatch[50-off]</text><path d="M46.0,166.9 L58.8,74.6 L71.6,68.8 L84.3,119.3 L97.1,76.5 L109.9,59.5 L122.7,132.5 L135.5,64.6 L148.2,63.9 L161.0,64.1 L173.8,113.3 L186.6,77.0 L199.4,61.0 L212.1,74.2 L224.9,129.3 L237.7,131.3 L250.5,59.6 L263.3,69.0 L276.0,59.2 L288.8,72.6 L301.6,59.4 L314.4,157.2 L327.2,67.3 L340.0,120.8 L352.7,64.0 L365.5,113.9 L378.3,116.2 L391.1,117.6 L403.9,69.6 L416.6,59.7 L429.4,67.4 L442.2,157.2 L455.0,120.7 L467.8,62.9 L480.5,62.0 L493.3,65.8 L506.1,158.3 L518.9,64.5 L531.7,68.7 L544.4,114.4 L557.2,121.6 L570.0,64.5" fill="none" stroke="#c98f9c" stroke-width="1.6"/><rect x="582" y="90" width="9" height="9" fill="#c98f9c"/><text x="596" y="98">plugin_dispatch[50-on]</text><text x="46" y="212">2026-08-21</text><text x="570" y="212" text-anchor="end">2026-10-02</text></svg>