<svg xmlns="http://www.w3.org/2000/svg" viewBox="0 0 720 220" role="img" aria-label="Plugin parser in the chain trend, relative to the first recorded run"><style>text{font:11px system-ui,sans-serif;fill:currentColor}.grid{stroke:currentColor;stroke-opacity:.18}.base{stroke:currentColor;stroke-opacity:.45;stroke-dasharray:4 3}</style><line class="grid" x1="46" y1="192.0" x2="570" y2="192.0"/><text x="4" y="196.0">0.75x</text><line class="base" x1="46" y1="170.0" x2="570" y2="170.0"/><text x="4" y="174.0">1.00x</text><line class="grid" x1="46" y1="16.0" x2="570" y2="16.0"/><text x="4" y="20.0">2.75x</text><path d="M46.0,170.0 L98.4,96.5 L150.8,96.8 L203.2,134.9 L255.6,98.7 L308.0,30.4 L360.4,97.8 L412.8,35.9 L465.2,66.3 L517.6,69.6 L570.0,107.6" fill="none" stroke="#c8a45c" stroke-width="1.6"/><rect x="582" y="20" width="9" height="9" fill="#c8a45c"/><text x="596" y="28">plugin_parser[off]</text><path d="M46.0,170.0 L98.4,93.1 L150.8,93.7 L203.2,132.9 L255.6,95.6 L308.0,63.1 L360.4,125.3 L412.8,66.1 L465.2,60.7 L517.6,67.5 L570.0,105.9" fill="none" stroke="#7fa8c9" stroke-width="1.6"/><rect x="582" y="34" width="9" height="9" fill="#7fa8c9"/><text x="596" y="42">plugin_parser[on]</text><text x="46" y="212">2026-08-21</text><text x="570" y="212" text-anchor="end">2026-08-31</text></svg>