<svg xmlns="http://www.w3.org/2000/svg" viewBox="0 0 720 220" role="img" aria-label="Qt bridge (buffer + coalesced flush) trend, relative to the first recorded run"><style>text{font:11px system-ui,sans-serif;fill:currentColor}.grid{stroke:currentColor;stroke-opacity:.18}.base{stroke:currentColor;stroke-opacity:.45;stroke-dasharray:4 3}</style><line class="grid" x1="46" y1="192.0" x2="570" y2="192.0"/><text x="4" y="196.0">0.75x</text><line class="base" x1="46" y1="162.7" x2="570" y2="162.7"/><text x="4" y="166.7">1.00x</text><line class="grid" x1="46" y1="16.0" x2="570" y2="16.0"/><text x="4" y="20.0">2.25x</text><path d="M46.0,162.7 L60.2,64.9 L74.3,64.6 L88.5,113.4 L102.6,66.5 L116.8,45.8 L131.0,106.0 L145.1,44.5 L159.3,49.2 L173.5,43.3 L187.6,83.2 L201.8,64.4 L215.9,52.2 L230.1,64.1 L244.3,110.5 L258.4,112.7 L272.6,51.7 L286.8,49.9 L300.9,51.3 L315.1,46.2 L329.2,52.9 L343.4,139.0 L357.6,51.3 L371.7,92.2 L385.9,49.7 L400.1,91.8 L414.2,114.2 L428.4,115.2 L442.5,50.3 L456.7,50.5 L470.9,47.1 L485.0,134.0 L499.2,91.3 L513.4,50.6 L527.5,53.5 L541.7,50.6 L555.8,154.1 L570.0,51.8" fill="none" stroke="#c8a45c" stroke-width="1.6"/><rect x="582" y="20" width="9" height="9" fill="#c8a45c"/><text x="596" y="28">qt_bridge_batch_only</text><path d="M46.0,162.7 L60.2,64.7 L74.3,67.2 L88.5,114.5 L102.6,69.5 L116.8,48.0 L131.0,112.0 L145.1,48.9 L159.3,50.9 L173.5,49.8 L187.6,90.8 L201.8,65.4 L215.9,54.4 L230.1,65.5 L244.3,117.5 L258.4,118.2 L272.6,52.4 L286.8,48.8 L300.9,49.1 L315.1,45.1 L329.2,52.1 L343.4,145.7 L357.6,50.5 L371.7,99.2 L385.9,51.0 L400.1,98.3 L414.2,113.0 L428.4,117.4 L442.5,49.0 L456.7,49.8 L470.9,49.1 L485.0,154.3 L499.2,98.8 L513.4,44.6 L527.5,53.7 L541.7,48.1 L555.8,154.8 L570.0,53.5" fill="none" stroke="#7fa8c9" stroke-width="1.6"/><rect x="582" y="34" width="9" height="9" fill="#7fa8c9"/><text x="596" y="42">qt_bridge_burst</text><text x="46" y="212">2026-08-21</text><text x="570" y="212" text-anchor="end">2026-09-28</text></svg>